#N canvas 0 66 1728 1080 12;
#N canvas 0 0 450 300 (subpatch) 0;
#X array array1 8.9602e+07 float 2;
#X coords 0 1 8.9602e+07 -1 200 140 1;
#X restore 112 78 graph;
#X obj 290 329 *~;
#X floatatom 47 345 5 0 0 0 - - - 0;
#X obj 93 534 *~ 256;
#X obj 291 507 samphold~;
#X obj 47 628 tabread4~ array1;
#X obj 47 593 +~;
#N canvas 0 0 450 300 (subpatch) 0;
#X array hanning 256 float 1;
#A 0 0 0.000150591 0.000602275 0.00135478 0.00240764 0.00376022 0.00541174
0.00736117 0.00960734 0.0121489 0.0149843 0.0181119 0.0215298 0.0252359
0.0292279 0.0335035 0.0380601 0.042895 0.0480052 0.0533877 0.0590392
0.0649563 0.0711355 0.077573 0.084265 0.0912073 0.0983959 0.105826
0.113494 0.121395 0.129524 0.137876 0.146446 0.155229 0.16422 0.173413
0.182803 0.192384 0.20215 0.212095 0.222214 0.2325 0.242948 0.25355
0.264301 0.275194 0.286222 0.297379 0.308658 0.320052 0.331555 0.343159
0.354857 0.366643 0.378509 0.390449 0.402454 0.414519 0.426634 0.438794
0.450991 0.463218 0.475466 0.487729 0.5 0.512271 0.524534 0.536782
0.549009 0.561205 0.573365 0.585481 0.597545 0.609551 0.62149 0.633357
0.645143 0.656841 0.668445 0.679948 0.691342 0.702621 0.713778 0.724806
0.735699 0.74645 0.757052 0.767499 0.777786 0.787905 0.79785 0.807616
0.817197 0.826587 0.83578 0.844771 0.853554 0.862124 0.870476 0.878605
0.886506 0.894174 0.901605 0.908793 0.915736 0.922428 0.928865 0.935044
0.940961 0.946613 0.951995 0.957106 0.96194 0.966497 0.970773 0.974765
0.978471 0.981889 0.985016 0.987852 0.990393 0.992639 0.994589 0.99624
0.997593 0.998645 0.999398 0.999849 1 0.999849 0.999398 0.998645 0.997592
0.996239 0.994588 0.992638 0.990392 0.987851 0.985015 0.981887 0.978469
0.974763 0.970771 0.966495 0.961939 0.957104 0.951993 0.946611 0.940959
0.935042 0.928863 0.922425 0.915733 0.908791 0.901602 0.894171 0.886503
0.878602 0.870473 0.862121 0.853551 0.844768 0.835777 0.826584 0.817194
0.807613 0.797847 0.787901 0.777782 0.767496 0.757048 0.746446 0.735695
0.724802 0.713774 0.702617 0.691338 0.679944 0.668441 0.656837 0.645139
0.633353 0.621486 0.609547 0.597541 0.585477 0.573361 0.561201 0.549004
0.536778 0.52453 0.512266 0.499996 0.487725 0.475462 0.463213 0.450987
0.43879 0.42663 0.414515 0.40245 0.390445 0.378505 0.366639 0.354853
0.343155 0.331551 0.320048 0.308654 0.297375 0.286218 0.27519 0.264297
0.253547 0.242944 0.232497 0.222211 0.212092 0.202146 0.19238 0.182799
0.17341 0.164217 0.155226 0.146443 0.137873 0.129521 0.121392 0.113491
0.105823 0.0983929 0.0912044 0.0842621 0.0775702 0.0711328 0.0649537
0.0590367 0.0533853 0.0480029 0.0428928 0.038058 0.0335015 0.029226
0.025234 0.0215281 0.0181104 0.0149829 0.0121476 0.00960615 0.0073601
0.00541082 0.00375944 0.00240701 0.00135431 0.000601947 0.000150442
;
#X coords 0 1 256 0 40 30 1;
#X restore -30 723 graph;
#X text -45 740 0;
#X text -45 717 1;
#X text -42 756 0;
#X text -6 756 256;
#X obj 94 665 tabread~ hanning;
#X obj 48 695 *~;
#X obj 475 523 *~ 256;
#X obj 416 558 samphold~;
#X obj 386 624 tabread4~ array1;
#X obj 386 589 +~;
#X obj 474 663 tabread~ hanning;
#X obj 387 691 *~;
#X obj 385 457 wrap~;
#X obj 385 522 *~;
#X obj 48 509 *~;
#X obj 703 519 *~ 256;
#X obj 643 556 samphold~;
#X obj 614 620 tabread4~ array1;
#X obj 614 585 +~;
#X obj 702 659 tabread~ hanning;
#X obj 613 685 *~;
#X obj 613 453 wrap~;
#X obj 613 425 +~ 0.5;
#X obj 613 518 *~;
#X obj 385 429 +~ 0.25;
#X obj 929 516 *~ 256;
#X obj 869 553 samphold~;
#X obj 840 617 tabread4~ array1;
#X obj 840 582 +~;
#X obj 928 656 tabread~ hanning;
#X obj 841 684 *~;
#X obj 839 450 wrap~;
#X obj 839 515 *~;
#X obj 839 422 +~ 0.75;
#X text 31 29 3.7.2.3. Four Readers;
#X text 919 769 Johannes Kreidler;
#X obj 290 303 phasor~ 1;
#X obj 47 377 phasor~ 1;
#X obj 648 164 soundfiler;
#X floatatom 648 190 5 0 0 0 - - - 0;
#X obj 648 216 expr 48000 / $f1;
#X floatatom 431 286 5 0 0 0 - - - 0;
#X obj 803 366 sig~;
#X floatatom 814 337 5 0 0 0 - - - 0;
#X obj 811 301 * 48000;
#X floatatom 816 231 5 0 0 0 - - - 0;
#X obj 36 1213 dac~ 1 2;
#X text 475 287 Amount of file to read in Samples;
#X text -101 311 freely chosen playback speed for Phasor Read Head
;
#X msg 438 58 [ \; pd dsp 1;
#X obj 361 -13 loadbang;
#X obj 326 -10 bng 15 250 50 0 empty empty empty 17 7 0 10 #fcfcfc
#000000 #000000;
#X msg 403 77 1;
#X obj 287 275 * 1;
#X floatatom 355 244 5 0 0 0 - - - 0;
#X obj 1018 174 * 0.6;
#X obj 1017 211 sig~;
#X floatatom 1015 141 5 0 0 0 - - - 0;
#X obj 52 802 *~;
#X text 1063 138 Forward Grains;
#X msg 320 49 1;
#X text 914 792 www.pd-tutorial.com Expansions by Kasey Pocius IDMIL
- CIRMMT - McGill;
#X obj 338 817 *~;
#X obj 521 807 sig~;
#X floatatom 522 772 5 0 0 0 - - - 0;
#X obj 51 847 +~;
#X obj 112 849 +~;
#X obj -71 815 r outputGain;
#X obj 1268 251 s outputGain;
#X floatatom 1269 211 5 0 0 0 - - - 0;
#X obj -73 849 sig~;
#X obj 1291 33 vsl 15 128 0 1 0 0 empty empty empty 0 -9 0 10 #fcfcfc
#000000 #000000 0 1;
#X obj 1269 182 pow 2;
#X obj 361 15 t b b b b b b;
#X obj 340 855 rev3~ 120 90 3000 20;
#X msg 1614 379 disconnect;
#X obj 1595 405 netsend -u -b;
#X obj 1596 304 list prepend send;
#X obj 1596 329 list trim;
#X listbox 1440 258 85 0 0 0 - - - 0;
#X obj 1440 227 oscformat lcd;
#X msg 1493 171 list clear 1 1;
#X obj 1442 96 t b b b b;
#X obj 1443 41 tgl 15 0 empty empty empty 17 7 0 10 #fcfcfc #000000
#000000 0 1;
#X obj 1442 67 metro 18000;
#X msg 583 47 read -resize ChampDesPossibles_Concat.wav array1;
#X obj 55 741 +~;
#X obj 55 882 +~;
#X obj 105 887 +~;
#X obj 52 978 dorianfilterbank;
#X obj 179 983 dorianfilterbank;
#X obj 30 1059 +~;
#X obj 135 1066 +~;
#X obj 300 1039 *~;
#X obj 313 1007 sig~;
#X floatatom 311 977 5 0 0 0 - - - 0;
#X obj 233 1037 *~;
#X obj 497 1044 *~ 0.33;
#X obj 564 1046 *~ 0.33;
#X obj 332 1124 delread~ del1 150;
#X obj 502 1129 delread~ del2 150;
#X obj 503 1094 delwrite~ del2 1000;
#X obj 331 1095 delwrite~ del1 1000;
#X obj 644 1124 delread~ del1 250;
#X obj 814 1129 delread~ del2 250;
#X obj 645 1163 *~ 0.33;
#X obj 815 1169 *~ 0.33;
#X obj 333 1163 +~;
#X obj 287 1163 +~;
#X obj 168 1142 *~;
#X obj 212 1129 sig~;
#X floatatom 210 1099 5 0 0 0 - - - 0;
#X obj 123 1130 *~;
#X obj 766 846 delread~ del2 433;
#X obj 596 841 delread~ del1 433;
#X obj 481 945 *~;
#X obj 414 943 *~;
#X obj 589 932 +~;
#X obj 597 880 *~ 0.1;
#X obj 614 816 *~ 0.1;
#X obj 606 768 delread~ del2 967;
#X obj 766 937 +~;
#X obj 767 886 *~ 0.1;
#X obj 770 803 *~ 0.1;
#X obj 762 755 delread~ del1 967;
#X msg 1448 133 list T-Tree 1 1;
#X msg 1461 151 list Shimmer 2 1;
#X obj 520 734 r ReverbGain;
#X obj 2046 878 s ReverbGain;
#X obj 304 916 r FilterBank;
#X obj 212 1069 r DelayMix;
#X obj 1837 895 s FilterBank;
#X obj 1430 1028 s DelayMix;
#X obj -33 1137 +~;
#X obj 72 1144 +~;
#X obj 36 1183 *~;
#X obj -9 1171 *~;
#X obj 1407 568 netreceive -u -b;
#X obj 1402 591 oscparse;
#X obj 1402 619 route list;
#X obj 1774 942 unpack f f f;
#X obj 1384 859 route all top middle bottom;
#X obj 1654 871 unpack f f f;
#X obj 1392 822 route touch brush multibrush rub multirub shakexyz
jabxyz ypr, f 62;
#X obj 1717 904 unpack f f f;
#N canvas 0 38 1728 979 raw_output 0;
#X obj 87 318 vsl 45 135 -32767 32767 0 0 empty empty AccelX 0 -9 0
10 #fcfcfc #000000 #000000 0 1;
#X obj 137 318 vsl 45 135 -32767 32767 0 0 empty empty AccelY 0 -9
0 10 #fcfcfc #000000 #000000 0 1;
#X obj 187 318 vsl 45 135 -32767 32767 0 0 empty empty AccelZ 0 -9
0 10 #fcfcfc #000000 #000000 0 1;
#X obj 237 318 vsl 45 135 -41 41 0 0 empty empty GyroX 0 -9 0 10 #fcfcfc
#000000 #000000 0 1;
#X obj 287 318 vsl 45 135 -41 41 0 0 empty empty GyroY 0 -9 0 10 #fcfcfc
#000000 #000000 0 1;
#X obj 337 318 vsl 45 135 -41 41 0 0 empty empty GyroZ 0 -9 0 10 #fcfcfc
#000000 #000000 0 1;
#X obj 537 318 vsl 45 135 0 4095 0 0 empty empty Pressure 0 -9 0 10
#fcfcfc #000000 #000000 0 1;
#X obj 587 318 vsl 45 135 0 1023 0 0 empty empty Piezo 0 -9 0 10 #fcfcfc
#000000 #000000 0 1;
#X obj 387 318 vsl 45 135 -32767 32767 0 0 empty empty MagX 0 -9 0
10 #fcfcfc #000000 #000000 0 1;
#X obj 437 318 vsl 45 135 -32767 32767 0 0 empty empty MagY 0 -9 0
10 #fcfcfc #000000 #000000 0 1;
#X obj 487 318 vsl 45 135 -32767 32767 0 0 empty empty MagZ 0 -9 0
10 #fcfcfc #000000 #000000 0 1;
#X floatatom 187 461 7 0 0 0 - - - 0;
#X floatatom 237 461 7 0 0 0 - - - 0;
#X floatatom 287 461 7 0 0 0 - - - 0;
#X floatatom 337 461 7 0 0 0 - - - 0;
#X floatatom 537 461 7 0 0 0 - - - 0;
#X floatatom 587 461 7 0 0 0 - - - 0;
#X floatatom 387 461 7 0 0 0 - - - 0;
#X floatatom 437 461 7 0 0 0 - - - 0;
#X floatatom 487 461 7 0 0 0 - - - 0;
#X floatatom 137 461 7 0 0 0 - - - 0;
#X floatatom 87 461 7 0 0 0 - - - 0;
#N canvas 0 38 1728 979 cook_touch_sopranino 0;
#X obj 323 73 inlet;
#X obj 356 215 list append;
#X obj 355 242 outlet;
#X obj 358 139 list split 15;
#X connect 0 0 3 0;
#X connect 1 0 2 0;
#X connect 3 0 1 0;
#X restore 64 203 pd cook_touch_sopranino;
#X obj 83 226 unpack f f f;
#X obj 163 226 unpack f f f;
#X obj 244 226 unpack f f f;
#X text 10 299 Raw (/raw);
#X obj 524 228 route short long double;
#X obj 569 250 tgl 15 0 empty empty long -4 23 0 10 #fcfcfc #000000
#000000 0 1;
#X obj 614 250 tgl 15 0 empty empty double -9 23 0 10 #fcfcfc #000000
#000000 0 1;
#X obj 508 261 bng 15 250 50 0 empty empty short 17 7 0 10 #fcfcfc
#000000 #000000;
#X obj 489 245 sel 1;
#X obj 31 175 route capsense accl gyro magn fsr piezo button touchstrips
, f 62;
#X obj 30 12 inlet;
#X obj 70 107 unpack f f f f;
#X floatatom 71 133 10 0 0 0 - - - 0;
#X floatatom 137 133 10 0 0 0 - - - 0;
#X floatatom 203 133 10 0 0 0 - - - 0;
#X floatatom 269 133 10 0 0 0 - - - 0;
#X text 79 88 Quaternions;
#X obj 33 63 route raw orientation ypr info norm battery instrument
;
#X obj 39 240 outlet;
#X obj 195 97 s info311;
#X obj 222 8 s norm311;
#X obj 299 85 s battery311;
#X obj 381 119 s instrument311;
#X connect 0 0 21 0;
#X connect 1 0 20 0;
#X connect 2 0 11 0;
#X connect 3 0 12 0;
#X connect 4 0 13 0;
#X connect 5 0 14 0;
#X connect 6 0 15 0;
#X connect 7 0 16 0;
#X connect 8 0 17 0;
#X connect 9 0 18 0;
#X connect 10 0 19 0;
#X connect 22 0 41 0;
#X connect 23 0 0 0;
#X connect 23 1 1 0;
#X connect 23 2 2 0;
#X connect 24 0 3 0;
#X connect 24 1 4 0;
#X connect 24 2 5 0;
#X connect 25 0 8 0;
#X connect 25 1 9 0;
#X connect 25 2 10 0;
#X connect 27 0 31 0;
#X connect 27 1 28 0;
#X connect 27 2 29 0;
#X connect 31 0 30 0;
#X connect 32 0 22 0;
#X connect 32 1 23 0;
#X connect 32 2 24 0;
#X connect 32 3 25 0;
#X connect 32 4 6 0;
#X connect 32 5 7 0;
#X connect 32 6 27 0;
#X connect 33 0 40 0;
#X connect 34 0 35 0;
#X connect 34 1 36 0;
#X connect 34 2 37 0;
#X connect 34 3 38 0;
#X connect 40 0 32 0;
#X connect 40 1 34 0;
#X connect 40 3 42 0;
#X connect 40 4 43 0;
#X connect 40 5 44 0;
#X connect 40 6 45 0;
#X restore 1394 686 pd raw_output;
#X obj 1412 455 loadbang;
#X msg 1407 545 listen \$1;
#X msg 1415 498 8000;
#N canvas 0 65 1728 1052 norm_sensor_output 0;
#X obj 97 157 vsl 45 135 -1 1 0 0 empty empty AccelX 0 -9 0 10 #fcfcfc
#000000 #000000 0 1;
#X obj 147 157 vsl 45 135 -1 1 0 0 empty empty AccelY 0 -9 0 10 #fcfcfc
#000000 #000000 0 1;
#X obj 197 157 vsl 45 135 -1 1 0 0 empty empty AccelZ 0 -9 0 10 #fcfcfc
#000000 #000000 0 1;
#X obj 247 157 vsl 45 135 -1 1 0 0 empty empty GyroX 0 -9 0 10 #fcfcfc
#000000 #000000 0 1;
#X obj 297 157 vsl 45 135 -1 1 0 0 empty empty GyroY 0 -9 0 10 #fcfcfc
#000000 #000000 0 1;
#X obj 347 157 vsl 45 135 -1 1 0 0 empty empty GyroZ 0 -9 0 10 #fcfcfc
#000000 #000000 0 1;
#X obj 547 157 vsl 45 135 0 1 0 0 empty empty Pressure 0 -9 0 10 #fcfcfc
#000000 #000000 0 1;
#X obj 597 157 vsl 45 135 0 1 0 0 empty empty Piezo 0 -9 0 10 #fcfcfc
#000000 #000000 0 1;
#X obj 397 157 vsl 45 135 -1 1 0 0 empty empty MagX 0 -9 0 10 #fcfcfc
#000000 #000000 0 1;
#X obj 447 157 vsl 45 135 -1 1 0 0 empty empty MagY 0 -9 0 10 #fcfcfc
#000000 #000000 0 1;
#X obj 497 157 vsl 45 135 -1 1 0 0 empty empty MagZ 0 -9 0 10 #fcfcfc
#000000 #000000 0 1;
#X floatatom 197 300 7 0 0 0 - - - 0;
#X floatatom 247 300 7 0 0 0 - - - 0;
#X floatatom 297 300 7 0 0 0 - - - 0;
#X floatatom 347 300 7 0 0 0 - - - 0;
#X floatatom 547 300 7 0 0 0 - - - 0;
#X floatatom 597 300 7 0 0 0 - - - 0;
#X floatatom 397 300 7 0 0 0 - - - 0;
#X floatatom 447 300 7 0 0 0 - - - 0;
#X floatatom 497 300 7 0 0 0 - - - 0;
#X floatatom 147 300 7 0 0 0 - - - 0;
#X floatatom 97 300 7 0 0 0 - - - 0;
#X obj 218 107 unpack f f f;
#X obj 298 107 unpack f f f;
#X obj 379 107 unpack f f f;
#X obj 194 54 route capsense accl gyro magn fsr piezo, f 62;
#X text 20 114 Normalized (/norm);
#X obj 547 326 outlet;
#X obj 147 38 r norm311;
#X connect 0 0 21 0;
#X connect 1 0 20 0;
#X connect 2 0 11 0;
#X connect 3 0 12 0;
#X connect 4 0 13 0;
#X connect 5 0 14 0;
#X connect 6 0 15 0;
#X connect 7 0 16 0;
#X connect 8 0 17 0;
#X connect 9 0 18 0;
#X connect 10 0 19 0;
#X connect 15 0 27 0;
#X connect 22 0 0 0;
#X connect 22 1 1 0;
#X connect 22 2 2 0;
#X connect 23 0 3 0;
#X connect 23 1 4 0;
#X connect 23 2 5 0;
#X connect 24 0 8 0;
#X connect 24 1 9 0;
#X connect 24 2 10 0;
#X connect 25 1 22 0;
#X connect 25 2 23 0;
#X connect 25 3 24 0;
#X connect 25 4 6 0;
#X connect 25 5 7 0;
#X connect 28 0 25 0;
#X restore 1752 1113 pd norm_sensor_output;
#X obj 1838 865 * 1.3;
#X obj 1394 801 r instrument311;
#X obj 1825 728 r pres311;
#X obj 1752 1134 s pres311;
#X obj 1395 722 r battery311;
#X floatatom 1395 771 5 0 0 0 - - - 0;
#X obj 1429 1003 * 1.5;
#X obj 1402 647 route T-Stick_311 T-Stick_203;
#X obj 2037 753 r pres203;
#N canvas 0 65 1728 1052 raw_output 0;
#X obj 87 318 vsl 45 135 -32767 32767 0 0 empty empty AccelX 0 -9 0
10 #fcfcfc #000000 #000000 0 1;
#X obj 137 318 vsl 45 135 -32767 32767 0 0 empty empty AccelY 0 -9
0 10 #fcfcfc #000000 #000000 0 1;
#X obj 187 318 vsl 45 135 -32767 32767 0 0 empty empty AccelZ 0 -9
0 10 #fcfcfc #000000 #000000 0 1;
#X obj 237 318 vsl 45 135 -41 41 0 0 empty empty GyroX 0 -9 0 10 #fcfcfc
#000000 #000000 0 1;
#X obj 287 318 vsl 45 135 -41 41 0 0 empty empty GyroY 0 -9 0 10 #fcfcfc
#000000 #000000 0 1;
#X obj 337 318 vsl 45 135 -41 41 0 0 empty empty GyroZ 0 -9 0 10 #fcfcfc
#000000 #000000 0 1;
#X obj 537 318 vsl 45 135 0 4095 0 0 empty empty Pressure 0 -9 0 10
#fcfcfc #000000 #000000 0 1;
#X obj 587 318 vsl 45 135 0 1023 0 0 empty empty Piezo 0 -9 0 10 #fcfcfc
#000000 #000000 0 1;
#X obj 387 318 vsl 45 135 -32767 32767 0 0 empty empty MagX 0 -9 0
10 #fcfcfc #000000 #000000 0 1;
#X obj 437 318 vsl 45 135 -32767 32767 0 0 empty empty MagY 0 -9 0
10 #fcfcfc #000000 #000000 0 1;
#X obj 487 318 vsl 45 135 -32767 32767 0 0 empty empty MagZ 0 -9 0
10 #fcfcfc #000000 #000000 0 1;
#X floatatom 187 461 7 0 0 0 - - - 0;
#X floatatom 237 461 7 0 0 0 - - - 0;
#X floatatom 287 461 7 0 0 0 - - - 0;
#X floatatom 337 461 7 0 0 0 - - - 0;
#X floatatom 537 461 7 0 0 0 - - - 0;
#X floatatom 587 461 7 0 0 0 - - - 0;
#X floatatom 387 461 7 0 0 0 - - - 0;
#X floatatom 437 461 7 0 0 0 - - - 0;
#X floatatom 487 461 7 0 0 0 - - - 0;
#X floatatom 137 461 7 0 0 0 - - - 0;
#X floatatom 87 461 7 0 0 0 - - - 0;
#N canvas 0 38 1728 979 cook_touch_sopranino 0;
#X obj 323 73 inlet;
#X obj 356 215 list append;
#X obj 355 242 outlet;
#X obj 358 139 list split 15;
#X connect 0 0 3 0;
#X connect 1 0 2 0;
#X connect 3 0 1 0;
#X restore 64 203 pd cook_touch_sopranino;
#X obj 83 226 unpack f f f;
#X obj 163 226 unpack f f f;
#X obj 244 226 unpack f f f;
#X text 10 299 Raw (/raw);
#X obj 524 228 route short long double;
#X obj 569 250 tgl 15 0 empty empty long -4 23 0 10 #fcfcfc #000000
#000000 0 1;
#X obj 614 250 tgl 15 0 empty empty double -9 23 0 10 #fcfcfc #000000
#000000 0 1;
#X obj 508 261 bng 15 250 50 0 empty empty short 17 7 0 10 #fcfcfc
#000000 #000000;
#X obj 489 245 sel 1;
#X obj 31 175 route capsense accl gyro magn fsr piezo button touchstrips
, f 62;
#X obj 30 12 inlet;
#X obj 70 107 unpack f f f f;
#X floatatom 71 133 10 0 0 0 - - - 0;
#X floatatom 137 133 10 0 0 0 - - - 0;
#X floatatom 203 133 10 0 0 0 - - - 0;
#X floatatom 269 133 10 0 0 0 - - - 0;
#X text 79 88 Quaternions;
#X obj 33 63 route raw orientation ypr info norm battery instrument
;
#X obj 39 240 outlet;
#X obj 195 97 s info203;
#X obj 299 85 s battery203;
#X obj 381 119 s instrument203;
#X obj 222 8 s norm203;
#X connect 0 0 21 0;
#X connect 1 0 20 0;
#X connect 2 0 11 0;
#X connect 3 0 12 0;
#X connect 4 0 13 0;
#X connect 5 0 14 0;
#X connect 6 0 15 0;
#X connect 7 0 16 0;
#X connect 8 0 17 0;
#X connect 9 0 18 0;
#X connect 10 0 19 0;
#X connect 22 0 41 0;
#X connect 23 0 0 0;
#X connect 23 1 1 0;
#X connect 23 2 2 0;
#X connect 24 0 3 0;
#X connect 24 1 4 0;
#X connect 24 2 5 0;
#X connect 25 0 8 0;
#X connect 25 1 9 0;
#X connect 25 2 10 0;
#X connect 27 0 31 0;
#X connect 27 1 28 0;
#X connect 27 2 29 0;
#X connect 31 0 30 0;
#X connect 32 0 22 0;
#X connect 32 1 23 0;
#X connect 32 2 24 0;
#X connect 32 3 25 0;
#X connect 32 4 6 0;
#X connect 32 5 7 0;
#X connect 32 6 27 0;
#X connect 33 0 40 0;
#X connect 34 0 35 0;
#X connect 34 1 36 0;
#X connect 34 2 37 0;
#X connect 34 3 38 0;
#X connect 40 0 32 0;
#X connect 40 1 34 0;
#X connect 40 3 42 0;
#X connect 40 4 45 0;
#X connect 40 5 43 0;
#X connect 40 6 44 0;
#X restore 1503 683 pd raw_output;
#N canvas 0 65 1728 1052 norm_sensor_output 0;
#X obj 97 157 vsl 45 135 -1 1 0 0 empty empty AccelX 0 -9 0 10 #fcfcfc
#000000 #000000 0 1;
#X obj 147 157 vsl 45 135 -1 1 0 0 empty empty AccelY 0 -9 0 10 #fcfcfc
#000000 #000000 0 1;
#X obj 197 157 vsl 45 135 -1 1 0 0 empty empty AccelZ 0 -9 0 10 #fcfcfc
#000000 #000000 0 1;
#X obj 247 157 vsl 45 135 -1 1 0 0 empty empty GyroX 0 -9 0 10 #fcfcfc
#000000 #000000 0 1;
#X obj 297 157 vsl 45 135 -1 1 0 0 empty empty GyroY 0 -9 0 10 #fcfcfc
#000000 #000000 0 1;
#X obj 347 157 vsl 45 135 -1 1 0 0 empty empty GyroZ 0 -9 0 10 #fcfcfc
#000000 #000000 0 1;
#X obj 547 157 vsl 45 135 0 1 0 0 empty empty Pressure 0 -9 0 10 #fcfcfc
#000000 #000000 0 1;
#X obj 597 157 vsl 45 135 0 1 0 0 empty empty Piezo 0 -9 0 10 #fcfcfc
#000000 #000000 0 1;
#X obj 397 157 vsl 45 135 -1 1 0 0 empty empty MagX 0 -9 0 10 #fcfcfc
#000000 #000000 0 1;
#X obj 447 157 vsl 45 135 -1 1 0 0 empty empty MagY 0 -9 0 10 #fcfcfc
#000000 #000000 0 1;
#X obj 497 157 vsl 45 135 -1 1 0 0 empty empty MagZ 0 -9 0 10 #fcfcfc
#000000 #000000 0 1;
#X floatatom 197 300 7 0 0 0 - - - 0;
#X floatatom 247 300 7 0 0 0 - - - 0;
#X floatatom 297 300 7 0 0 0 - - - 0;
#X floatatom 347 300 7 0 0 0 - - - 0;
#X floatatom 547 300 7 0 0 0 - - - 0;
#X floatatom 597 300 7 0 0 0 - - - 0;
#X floatatom 397 300 7 0 0 0 - - - 0;
#X floatatom 447 300 7 0 0 0 - - - 0;
#X floatatom 497 300 7 0 0 0 - - - 0;
#X floatatom 147 300 7 0 0 0 - - - 0;
#X floatatom 97 300 7 0 0 0 - - - 0;
#X obj 218 107 unpack f f f;
#X obj 298 107 unpack f f f;
#X obj 379 107 unpack f f f;
#X obj 194 54 route capsense accl gyro magn fsr piezo, f 62;
#X text 20 114 Normalized (/norm);
#X obj 547 326 outlet;
#X obj 147 38 r norm203;
#X connect 0 0 21 0;
#X connect 1 0 20 0;
#X connect 2 0 11 0;
#X connect 3 0 12 0;
#X connect 4 0 13 0;
#X connect 5 0 14 0;
#X connect 6 0 15 0;
#X connect 7 0 16 0;
#X connect 8 0 17 0;
#X connect 9 0 18 0;
#X connect 10 0 19 0;
#X connect 15 0 27 0;
#X connect 22 0 0 0;
#X connect 22 1 1 0;
#X connect 22 2 2 0;
#X connect 23 0 3 0;
#X connect 23 1 4 0;
#X connect 23 2 5 0;
#X connect 24 0 8 0;
#X connect 24 1 9 0;
#X connect 24 2 10 0;
#X connect 25 1 22 0;
#X connect 25 2 23 0;
#X connect 25 3 24 0;
#X connect 25 4 6 0;
#X connect 25 5 7 0;
#X connect 28 0 25 0;
#X restore 1914 1109 pd norm_sensor_output;
#X obj 1914 1134 s pres203;
#X floatatom 1493 769 5 0 0 0 - - - 0;
#X obj 1493 720 r battery203;
#X obj 1537 1011 route all top middle bottom;
#X obj 1541 981 route touch brush multibrush rub multirub shakexyz
jabxyz ypr, f 62;
#X obj 1543 960 r instrument203;
#X obj 1520 1251 s GrainGain;
#X obj 1014 97 r GrainGain;
#X obj 1856 1032 unpack f f f;
#X obj 1297 1052 expr ($f1+$f2/2);
#X obj 1517 1172 pow 0.4;
#X obj 1297 1078 * 10;
#X obj 1514 1200 clip 0.3 1;
#X obj 1294 1133 / 1000;
#X obj 1293 1163 pow 0.4;
#X obj 1290 1191 clip 0.25 1;
#X obj 1288 1219 s FilterBank_Shine;
#X obj 1295 1110 leaky_integrator 1500 2 1000;
#X obj 1427 981 pow 0.4;
#X obj 1429 893 * 10;
#X obj 1429 949 / 100;
#X obj 1431 919 leaky_integrator 100 5 100;
#X obj 1516 1223 * 2;
#X obj 1521 1110 leaky_integrator 5000 3 1000;
#X obj 1519 1140 / 1000;
#X text 1416 430 Receive & Map T-Stick Data;
#X msg 1603 354 connect SPU005.local 20000;
#X obj 1828 763 * 100;
#X obj 2039 784 * 100;
#X obj 1833 822 / 1000;
#X obj 2044 843 / 1000;
#X obj 1830 789 leaky_integrator 100 5 1000;
#X obj 2041 810 leaky_integrator 100 5 1000;
#X connect 1 0 4 0;
#X connect 1 0 15 0;
#X connect 1 0 24 0;
#X connect 1 0 34 0;
#X connect 2 0 45 0;
#X connect 3 0 12 0;
#X connect 4 0 6 1;
#X connect 5 0 13 0;
#X connect 6 0 5 0;
#X connect 12 0 13 1;
#X connect 13 0 94 0;
#X connect 14 0 18 0;
#X connect 15 0 17 1;
#X connect 16 0 19 0;
#X connect 17 0 16 0;
#X connect 18 0 19 1;
#X connect 19 0 94 0;
#X connect 20 0 14 0;
#X connect 20 0 15 1;
#X connect 20 0 21 0;
#X connect 21 0 17 0;
#X connect 22 0 6 0;
#X connect 23 0 27 0;
#X connect 24 0 26 1;
#X connect 25 0 28 0;
#X connect 26 0 25 0;
#X connect 27 0 28 1;
#X connect 28 0 94 0;
#X connect 29 0 23 0;
#X connect 29 0 24 1;
#X connect 29 0 31 0;
#X connect 30 0 29 0;
#X connect 31 0 26 0;
#X connect 32 0 20 0;
#X connect 33 0 37 0;
#X connect 34 0 36 1;
#X connect 35 0 38 0;
#X connect 36 0 35 0;
#X connect 37 0 38 1;
#X connect 38 0 94 0;
#X connect 39 0 33 0;
#X connect 39 0 34 1;
#X connect 39 0 40 0;
#X connect 40 0 36 0;
#X connect 41 0 39 0;
#X connect 44 0 1 0;
#X connect 45 0 3 0;
#X connect 45 0 4 1;
#X connect 45 0 22 0;
#X connect 45 0 32 0;
#X connect 45 0 30 0;
#X connect 45 0 41 0;
#X connect 46 0 47 0;
#X connect 47 0 48 0;
#X connect 47 0 49 0;
#X connect 48 0 61 0;
#X connect 49 0 1 1;
#X connect 50 0 21 1;
#X connect 50 0 22 1;
#X connect 50 0 31 1;
#X connect 50 0 40 1;
#X connect 51 0 50 0;
#X connect 52 0 51 0;
#X connect 53 0 52 0;
#X connect 58 0 81 0;
#X connect 59 0 81 0;
#X connect 61 0 44 0;
#X connect 62 0 61 1;
#X connect 63 0 64 0;
#X connect 64 0 66 1;
#X connect 65 0 63 0;
#X connect 66 0 73 0;
#X connect 66 0 74 0;
#X connect 66 0 70 0;
#X connect 68 0 2 0;
#X connect 68 0 53 0;
#X connect 70 0 82 0;
#X connect 70 0 82 1;
#X connect 71 0 70 1;
#X connect 72 0 71 0;
#X connect 73 0 95 0;
#X connect 74 0 96 0;
#X connect 75 0 78 0;
#X connect 77 0 76 0;
#X connect 78 0 144 1;
#X connect 78 0 143 1;
#X connect 79 0 80 0;
#X connect 80 0 77 0;
#X connect 81 0 68 0;
#X connect 81 2 60 0;
#X connect 81 4 57 0;
#X connect 81 5 93 0;
#X connect 82 0 73 1;
#X connect 82 1 74 1;
#X connect 83 0 84 0;
#X connect 85 0 86 0;
#X connect 86 0 84 0;
#X connect 87 0 85 0;
#X connect 88 0 87 0;
#X connect 89 0 88 0;
#X connect 90 0 134 0;
#X connect 90 1 133 0;
#X connect 90 2 89 0;
#X connect 90 3 195 0;
#X connect 91 0 92 0;
#X connect 92 0 90 0;
#X connect 93 0 46 0;
#X connect 94 0 66 0;
#X connect 95 0 99 0;
#X connect 95 0 97 0;
#X connect 96 0 98 0;
#X connect 96 0 100 0;
#X connect 97 0 104 0;
#X connect 98 0 101 0;
#X connect 99 0 110 0;
#X connect 99 0 141 0;
#X connect 100 0 109 0;
#X connect 100 0 142 0;
#X connect 101 0 100 1;
#X connect 102 0 101 1;
#X connect 102 0 104 1;
#X connect 103 0 102 0;
#X connect 104 0 99 1;
#X connect 105 0 109 0;
#X connect 106 0 110 0;
#X connect 107 0 105 0;
#X connect 107 0 115 0;
#X connect 108 0 106 0;
#X connect 108 0 116 0;
#X connect 111 0 113 0;
#X connect 112 0 114 0;
#X connect 113 0 110 0;
#X connect 113 0 116 0;
#X connect 114 0 109 0;
#X connect 114 0 115 0;
#X connect 115 0 117 0;
#X connect 116 0 120 0;
#X connect 117 0 142 0;
#X connect 118 0 117 1;
#X connect 118 0 120 1;
#X connect 118 0 124 1;
#X connect 118 0 123 1;
#X connect 119 0 118 0;
#X connect 120 0 141 0;
#X connect 121 0 130 0;
#X connect 122 0 126 0;
#X connect 123 0 98 0;
#X connect 124 0 97 0;
#X connect 125 0 124 0;
#X connect 126 0 125 0;
#X connect 127 0 125 0;
#X connect 128 0 127 0;
#X connect 129 0 123 0;
#X connect 130 0 129 0;
#X connect 131 0 129 0;
#X connect 132 0 131 0;
#X connect 133 0 88 0;
#X connect 134 0 88 0;
#X connect 135 0 72 0;
#X connect 137 0 103 0;
#X connect 138 0 119 0;
#X connect 141 0 144 0;
#X connect 142 0 143 0;
#X connect 143 0 54 1;
#X connect 144 0 54 0;
#X connect 145 0 146 0;
#X connect 146 0 147 0;
#X connect 147 0 165 0;
#X connect 149 1 178 1;
#X connect 149 1 188 0;
#X connect 151 0 149 0;
#X connect 151 5 150 0;
#X connect 151 6 152 0;
#X connect 151 7 148 0;
#X connect 154 0 156 0;
#X connect 155 0 145 0;
#X connect 156 0 155 0;
#X connect 157 0 161 0;
#X connect 158 0 139 0;
#X connect 159 0 151 0;
#X connect 160 0 196 0;
#X connect 162 0 163 0;
#X connect 164 0 140 0;
#X connect 165 0 153 0;
#X connect 165 1 167 0;
#X connect 166 0 197 0;
#X connect 168 0 169 0;
#X connect 171 0 170 0;
#X connect 172 1 178 0;
#X connect 173 0 172 0;
#X connect 173 6 177 0;
#X connect 174 0 173 0;
#X connect 176 0 65 0;
#X connect 178 0 180 0;
#X connect 179 0 181 0;
#X connect 180 0 186 0;
#X connect 180 0 192 0;
#X connect 181 0 191 0;
#X connect 182 0 183 0;
#X connect 183 0 184 0;
#X connect 184 0 185 0;
#X connect 186 0 182 0;
#X connect 187 0 164 0;
#X connect 188 0 190 0;
#X connect 189 0 187 0;
#X connect 190 0 189 0;
#X connect 191 0 175 0;
#X connect 192 0 193 0;
#X connect 193 0 179 0;
#X connect 195 0 84 0;
#X connect 196 0 200 0;
#X connect 197 0 201 0;
#X connect 198 0 158 0;
#X connect 199 0 136 0;
#X connect 200 0 198 0;
#X connect 201 0 199 0;
