#N canvas 960 23 960 1155 12;
#X obj 80 130 netreceive -u -b;
#X text 210 130 UDP packets \, binary output;
#X msg 100 100 listen 0;
#X text 170 70 Port to listen on;
#X text 168 98 Stop listening;
#X obj 80 160 oscparse;
#X obj 80 190 route list;
#X obj 80 248 s \$0-tstick;
#X obj 390 210 r \$0-tstick;
#X obj 220 280 route instrument;
#X obj 390 280 route orientation;
#X obj 220 309 route touch;
#X obj 220 338 route all;
#X floatatom 220 367 5 0 0 0 - - -, f 5;
#X obj 390 310 route shakexyz;
#X obj 390 339 unpack f f f;
#X floatatom 380 370 5 0 0 0 - - -, f 5;
#X floatatom 430 370 5 0 0 0 - - -, f 5;
#X floatatom 480 370 5 0 0 0 - - -, f 5;
#X obj 400 410 pack f f f;
#X obj 400 440 +;
#X obj 400 500 / 3;
#X text 370 470 Average the xyz shake amounts.;
#X floatatom 400 559 5 0 0 0 - - -, f 5;
#X obj 640 270 route ypr;
#X obj 640 299 unpack f f f;
#X floatatom 630 330 5 0 0 0 - - -, f 5;
#X floatatom 680 330 5 0 0 0 - - -, f 5;
#X floatatom 730 330 5 0 0 0 - - -, f 5;
#X obj 640 240 route instrument;
#X floatatom 590 399 5 0 0 0 - - -, f 5;
#X floatatom 640 429 5 0 0 0 - - -, f 5;
#X floatatom 690 457 5 0 0 0 - - -, f 5;
#X obj 80 30 inlet;
#X msg 80 70 listen \$1;
#X obj 180 180 inlet;
#X obj 80 219 route \$1;
#X text 710 30 Params: 1 Port to listen on. 2 T-Stick name.;
#X obj 400 530 maxlib/scale 0 2 0 1;
#X obj 220 410 outlet;
#X obj 400 587 outlet;
#X obj 590 427 outlet;
#X obj 640 457 outlet;
#X obj 690 485 outlet;
#X text 710 60 Outputs: 1 Touch amount (0-1). 2 Shake amount (0-1).
3 X orientation (0-1). 4 Y orientation (0-1). 5 Z orientation (0-1).
;
#X obj 550 370 maxlib/scale -180 180 0 1;
#X obj 630 400 maxlib/scale -90 90 0 1;
#X obj 690 430 maxlib/scale -180 180 0 1;
#X connect 0 0 5 0;
#X connect 2 0 0 0;
#X connect 5 0 6 0;
#X connect 6 0 36 0;
#X connect 8 0 9 0;
#X connect 8 0 10 0;
#X connect 8 0 29 0;
#X connect 9 0 11 0;
#X connect 9 0 14 0;
#X connect 11 0 12 0;
#X connect 12 0 13 0;
#X connect 13 0 39 0;
#X connect 14 0 15 0;
#X connect 15 0 16 0;
#X connect 15 1 17 0;
#X connect 15 2 18 0;
#X connect 16 0 19 0;
#X connect 17 0 19 1;
#X connect 18 0 19 2;
#X connect 19 0 20 0;
#X connect 20 0 21 0;
#X connect 21 0 38 0;
#X connect 23 0 40 0;
#X connect 24 0 25 0;
#X connect 25 0 26 0;
#X connect 25 1 27 0;
#X connect 25 2 28 0;
#X connect 26 0 45 0;
#X connect 27 0 46 0;
#X connect 28 0 47 0;
#X connect 29 0 24 0;
#X connect 30 0 41 0;
#X connect 31 0 42 0;
#X connect 32 0 43 0;
#X connect 33 0 34 0;
#X connect 34 0 0 0;
#X connect 35 0 36 1;
#X connect 36 0 7 0;
#X connect 38 0 23 0;
#X connect 45 0 30 0;
#X connect 46 0 31 0;
#X connect 47 0 32 0;
