#N canvas 0 23 960 566 12;
#X obj 160 170 granular_synth;
#X obj 100 10 loadbang;
#X obj 80 130 symbol wind.wav;
#X obj 200 70 t_stick;
#X obj 130 40 float 8000;
#X obj 250 40 symbol TStick_305;
#X connect 1 0 2 0;
#X connect 1 0 4 0;
#X connect 1 0 5 0;
#X connect 2 0 0 0;
#X connect 3 0 0 2;
#X connect 3 0 0 1;
#X connect 3 1 0 1;
#X connect 3 2 0 4;
#X connect 3 3 0 5;
#X connect 3 4 0 6;
#X connect 4 0 3 0;
#X connect 5 0 3 1;
