#N canvas 0 23 960 1155 12;
#X obj 20 80 netreceive -u -b;
#X text 150 80 UDP packets \, binary output;
#X msg 20 20 listen 8000;
#X msg 40 50 listen 0;
#X text 110 20 Port to listen on;
#X text 108 48 Stop listening;
#X obj 20 110 oscparse;
#X obj 20 140 route list;
#X obj 20 169 route TStick_305;
#X obj 20 198 s \$0-tstick;
#X obj 330 160 r \$0-tstick;
#X obj 160 230 route instrument;
#X obj 330 230 route orientation;
#X obj 160 259 route touch;
#X obj 160 288 route all;
#X floatatom 160 317 5 0 0 0 - - -, f 5;
#X floatatom 160 374 5 0 0 0 - - -, f 5;
#X obj 160 345 maxlib/scale 0 1 0 127;
#X obj 160 402 ctlout 16 1;
#X obj 330 260 route shakexyz;
#X obj 330 289 unpack f f f;
#X floatatom 320 320 5 0 0 0 - - -, f 5;
#X floatatom 370 320 5 0 0 0 - - -, f 5;
#X floatatom 420 320 5 0 0 0 - - -, f 5;
#X obj 340 360 pack f f f;
#X obj 340 390 +;
#X obj 340 450 / 3;
#X text 310 420 Average the xyz shake amounts.;
#X obj 340 480 maxlib/scale 0 2 0 127;
#X floatatom 340 509 5 0 0 0 - - -, f 5;
#X obj 340 537 ctlout 17 1;
#X obj 580 220 route ypr;
#X obj 580 249 unpack f f f;
#X floatatom 570 280 5 0 0 0 - - -, f 5;
#X floatatom 620 280 5 0 0 0 - - -, f 5;
#X floatatom 670 280 5 0 0 0 - - -, f 5;
#X obj 580 190 route instrument;
#X obj 490 320 maxlib/scale -180 180 0 127;
#X floatatom 530 349 5 0 0 0 - - -, f 5;
#X obj 580 350 maxlib/scale -90 90 0 127;
#X floatatom 580 379 5 0 0 0 - - -, f 5;
#X floatatom 630 407 5 0 0 0 - - -, f 5;
#X obj 630 380 maxlib/scale -180 180 0 127;
#X obj 490 380 ctlout 18 1;
#X obj 540 410 ctlout 19 1;
#X obj 630 435 ctlout 20 1;
#X connect 0 0 6 0;
#X connect 2 0 0 0;
#X connect 3 0 0 0;
#X connect 6 0 7 0;
#X connect 7 0 8 0;
#X connect 8 0 9 0;
#X connect 10 0 11 0;
#X connect 10 0 12 0;
#X connect 10 0 36 0;
#X connect 11 0 13 0;
#X connect 11 0 19 0;
#X connect 13 0 14 0;
#X connect 14 0 15 0;
#X connect 15 0 17 0;
#X connect 16 0 18 0;
#X connect 17 0 16 0;
#X connect 19 0 20 0;
#X connect 20 0 21 0;
#X connect 20 1 22 0;
#X connect 20 2 23 0;
#X connect 21 0 24 0;
#X connect 22 0 24 1;
#X connect 23 0 24 2;
#X connect 24 0 25 0;
#X connect 25 0 26 0;
#X connect 26 0 28 0;
#X connect 28 0 29 0;
#X connect 29 0 30 0;
#X connect 31 0 32 0;
#X connect 32 0 33 0;
#X connect 32 1 34 0;
#X connect 32 2 35 0;
#X connect 33 0 37 0;
#X connect 34 0 39 0;
#X connect 35 0 42 0;
#X connect 36 0 31 0;
#X connect 37 0 38 0;
#X connect 38 0 43 0;
#X connect 39 0 40 0;
#X connect 40 0 44 0;
#X connect 41 0 45 0;
#X connect 42 0 41 0;
