#N canvas 720 23 720 855 12;
#X floatatom 240 390 5 0 0 0 - - -, f 5;
#X obj 240 360 netsend -u -b;
#X obj 280 299 list prepend send;
#X obj 280 328 list trim;
#X msg 30 80 connect 192.168.86.238 1234;
#X obj 30 40 loadbang;
#X text 290 390 1 if connected \, 0 if error;
#X obj 290 270 oscformat led_ring;
#X obj 210 130 inlet;
#X obj 270 130 inlet;
#X floatatom 210 160 5 0 0 0 - - -, f 5;
#X obj 260 230 pack f f f f;
#X obj 320 130 inlet;
#X obj 380 130 inlet;
#X floatatom 270 170 5 0 0 0 - - -, f 5;
#X floatatom 320 170 5 0 0 0 - - -, f 5;
#X floatatom 370 170 5 0 0 0 - - -, f 5;
#X connect 1 0 0 0;
#X connect 2 0 3 0;
#X connect 3 0 1 0;
#X connect 4 0 1 0;
#X connect 5 0 4 0;
#X connect 7 0 2 0;
#X connect 8 0 10 0;
#X connect 9 0 14 0;
#X connect 10 0 11 0;
#X connect 11 0 7 0;
#X connect 12 0 15 0;
#X connect 13 0 16 0;
#X connect 14 0 11 1;
#X connect 15 0 11 2;
#X connect 16 0 11 3;
