#N canvas 360 23 720 855 12;
#X obj 210 170 granular_synth;
#X obj 50 10 loadbang;
#X obj 250 70 t_stick;
#X obj 390 230 led_ring_osc;
#X floatatom 410 120 5 0 0 0 - - -, f 5;
#X floatatom 450 120 5 0 0 0 - - -, f 5;
#X floatatom 370 120 5 0 0 0 - - -, f 5;
#X obj 370 80 t b f;
#X floatatom 330 160 5 0 0 0 - - -, f 5;
#X text 330 260 ^^ Which LED ring to illuminate (0-3);
#X obj 390 160 *;
#X obj 420 160 *;
#X obj 451 159 *;
#X obj 190 40 unpack s s f;
#X msg 190 10 wind.wav TStick_305 8000;
#X connect 1 0 14 0;
#X connect 2 0 0 2;
#X connect 2 0 0 1;
#X connect 2 0 10 1;
#X connect 2 0 11 1;
#X connect 2 0 12 1;
#X connect 2 1 0 1;
#X connect 2 2 0 4;
#X connect 2 2 7 0;
#X connect 2 3 0 5;
#X connect 2 3 4 0;
#X connect 2 4 0 6;
#X connect 2 4 5 0;
#X connect 4 0 11 0;
#X connect 5 0 12 0;
#X connect 6 0 10 0;
#X connect 7 0 8 0;
#X connect 7 1 6 0;
#X connect 8 0 3 0;
#X connect 10 0 3 1;
#X connect 11 0 3 2;
#X connect 12 0 3 3;
#X connect 13 0 0 0;
#X connect 13 1 2 1;
#X connect 13 2 2 0;
#X connect 14 0 13 0;
