#N canvas 360 23 720 855 12;
#X obj 160 170 granular_synth;
#X obj 50 10 loadbang;
#X obj 80 130 symbol wind.wav;
#X obj 200 70 t_stick;
#X obj 390 230 led_ring_osc;
#X floatatom 410 120 5 0 0 0 - - -, f 5;
#X floatatom 450 120 5 0 0 0 - - -, f 5;
#X floatatom 370 120 5 0 0 0 - - -, f 5;
#X obj 370 80 t b f;
#X floatatom 330 160 5 0 0 0 - - -, f 5;
#X text 330 260 ^^ Which LED ring to illuminate (0-3);
#X obj 390 160 *;
#X obj 420 160 *;
#X obj 451 159 *;
#X msg 140 10 8000 TStick_305;
#X obj 140 40 unpack f s;
#X connect 1 0 2 0;
#X connect 1 0 14 0;
#X connect 2 0 0 0;
#X connect 3 0 0 2;
#X connect 3 0 0 1;
#X connect 3 0 11 1;
#X connect 3 0 12 1;
#X connect 3 0 13 1;
#X connect 3 1 0 1;
#X connect 3 2 0 4;
#X connect 3 2 8 0;
#X connect 3 3 0 5;
#X connect 3 3 5 0;
#X connect 3 4 0 6;
#X connect 3 4 6 0;
#X connect 5 0 12 0;
#X connect 6 0 13 0;
#X connect 7 0 11 0;
#X connect 8 0 9 0;
#X connect 8 1 7 0;
#X connect 9 0 4 0;
#X connect 11 0 4 1;
#X connect 12 0 4 2;
#X connect 13 0 4 3;
#X connect 14 0 15 0;
#X connect 15 0 3 0;
#X connect 15 1 3 1;
