#N canvas 160 23 1280 855 12;
#X obj 20 89 netreceive -u -b;
#X obj 20 110 oscparse;
#X obj 20 140 route list;
#X obj 20 200 route raw orientation ypr info norm battery instrument
;
#X obj 460 163 vsl 45 135 -1 1 0 0 empty empty AccelX 0 -9 0 10 -262144
-1 -1 13400 1;
#X obj 510 163 vsl 45 135 -1 1 0 0 empty empty AccelY 0 -9 0 10 -262144
-1 -1 13400 1;
#X obj 560 163 vsl 45 135 -1 1 0 0 empty empty AccelZ 0 -9 0 10 -262144
-1 -1 13400 1;
#X obj 610 163 vsl 45 135 -1 1 0 0 empty empty GyroX 0 -9 0 10 -262144
-1 -1 13400 1;
#X obj 660 163 vsl 45 135 -1 1 0 0 empty empty GyroY 0 -9 0 10 -262144
-1 -1 13400 1;
#X obj 710 163 vsl 45 135 -1 1 0 0 empty empty GyroZ 0 -9 0 10 -262144
-1 -1 13400 1;
#X obj 910 163 vsl 45 135 0 1 0 0 empty empty Pressure 0 -9 0 10 -262144
-1 -1 5239 1;
#X obj 960 163 vsl 45 135 0 1 0 0 empty empty Piezo 0 -9 0 10 -262144
-1 -1 0 1;
#X obj 760 163 vsl 45 135 -1 1 0 0 empty empty MagX 0 -9 0 10 -262144
-1 -1 13400 1;
#X obj 810 163 vsl 45 135 -1 1 0 0 empty empty MagY 0 -9 0 10 -262144
-1 -1 13400 1;
#X obj 860 163 vsl 45 135 -1 1 0 0 empty empty MagZ 0 -9 0 10 -262144
-1 -1 13400 1;
#X floatatom 560 306 7 0 0 0 - - -, f 7;
#X floatatom 610 306 7 0 0 0 - - -, f 7;
#X floatatom 660 306 7 0 0 0 - - -, f 7;
#X floatatom 710 306 7 0 0 0 - - -, f 7;
#X floatatom 910 306 7 0 0 0 - - -, f 7;
#X floatatom 960 306 7 0 0 0 - - -, f 7;
#X floatatom 760 306 7 0 0 0 - - -, f 7;
#X floatatom 810 306 7 0 0 0 - - -, f 7;
#X floatatom 860 306 7 0 0 0 - - -, f 7;
#X floatatom 510 306 7 0 0 0 - - -, f 7;
#X floatatom 460 306 7 0 0 0 - - -, f 7;
#X obj 581 113 unpack f f f;
#X obj 661 113 unpack f f f;
#X obj 742 113 unpack f f f;
#X obj 557 60 route capsense accl gyro magn fsr piezo, f 62;
#X text 383 120 Normalized (/norm);
#X msg 20 60 listen 8000;
#X obj 20 170 route T-Stick_203;
#X obj 20 20 loadbang;
#X obj 20 39 delay 250;
#X obj 543 420 ctlout 15 2;
#X floatatom 543 390 5 0 0 0 - - -, f 5;
#X floatatom 663 400 5 0 0 0 - - -, f 5;
#X obj 663 430 ctlout 16 2;
#X floatatom 793 400 5 0 0 0 - - -, f 5;
#X obj 793 430 ctlout 17 2;
#X floatatom 933 400 5 0 0 0 - - -, f 5;
#X obj 933 430 ctlout 18 2;
#X obj 543 360 scale -1 1 127 0;
#X obj 663 370 scale -1 1 127 0;
#X obj 793 370 scale -1 1 127 0;
#X obj 214 224 s \$0-norm-203;
#X obj 540 40 r \$0-norm-203;
#X obj 933 370 scale 0 1 0 127;
#X connect 0 0 1 0;
#X connect 1 0 2 0;
#X connect 2 0 32 0;
#X connect 3 4 46 0;
#X connect 4 0 25 0;
#X connect 5 0 24 0;
#X connect 6 0 15 0;
#X connect 7 0 16 0;
#X connect 8 0 17 0;
#X connect 9 0 18 0;
#X connect 10 0 19 0;
#X connect 11 0 20 0;
#X connect 12 0 21 0;
#X connect 13 0 22 0;
#X connect 14 0 23 0;
#X connect 16 0 43 0;
#X connect 17 0 44 0;
#X connect 18 0 45 0;
#X connect 19 0 48 0;
#X connect 26 0 4 0;
#X connect 26 1 5 0;
#X connect 26 2 6 0;
#X connect 27 0 7 0;
#X connect 27 1 8 0;
#X connect 27 2 9 0;
#X connect 28 0 12 0;
#X connect 28 1 13 0;
#X connect 28 2 14 0;
#X connect 29 1 26 0;
#X connect 29 2 27 0;
#X connect 29 3 28 0;
#X connect 29 4 10 0;
#X connect 29 5 11 0;
#X connect 31 0 0 0;
#X connect 32 0 3 0;
#X connect 33 0 34 0;
#X connect 34 0 31 0;
#X connect 36 0 35 0;
#X connect 37 0 38 0;
#X connect 39 0 40 0;
#X connect 41 0 42 0;
#X connect 43 0 36 0;
#X connect 44 0 37 0;
#X connect 45 0 39 0;
#X connect 47 0 29 0;
#X connect 48 0 41 0;
