#N canvas 0 23 1440 855 12;
#X obj 20 89 netreceive -u -b;
#X obj 20 110 oscparse;
#X obj 20 140 route list;
#X obj 70 230 route raw orientation ypr info norm battery instrument
;
#X obj 910 163 vsl 45 135 0 1 0 0 empty empty Pressure 0 -9 0 10 #fcfcfc
#000000 #000000 6067 1;
#X floatatom 910 306 7 0 0 0 - - -, f 7;
#X obj 557 60 route capsense accl gyro magn fsr piezo, f 62;
#X msg 20 60 listen 8000;
#X obj 20 170 route T-Stick_203;
#X obj 20 20 loadbang;
#X obj 20 39 delay 250;
#X obj 300 270 s \$0-norm-203;
#X obj 540 40 r \$0-norm-203;
#X floatatom 470 960 5 0 3 0 - - -, f 5;
#X floatatom 520 960 5 0 255 0 - - -, f 5;
#X floatatom 570 960 5 0 255 0 - - -, f 5;
#X floatatom 620 960 5 0 255 0 - - -, f 5;
#X obj 480 1050 led_ring_osc;
#X obj 520 1000 t b f;
#X obj 570 1000 t b f;
#X obj 620 1000 t b f;
#X obj 42 485 route raw orientation ypr info norm battery instrument
;
#X obj 42 455 route T-Stick_420;
#X obj 260 520 s \$0-norm-420;
#X obj 590 550 unpack f f f f;
#X obj 670 610 vsl 30 128 -1 1 0 0 empty empty empty 0 -9 0 10 #fcfcfc
#000000 #000000 0 1;
#X text 1580 1120 More room to work with;
#X obj 590 550 unpack f f f f;
#X obj 390 620 vsl 30 128 -1 1 0 0 empty empty empty 0 -9 0 10 #fcfcfc
#000000 #000000 5128 1;
#X obj 510 620 vsl 30 128 -1 1 0 0 empty empty empty 0 -9 0 10 #fcfcfc
#000000 #000000 10069 1;
#X obj 580 620 vsl 30 128 -1 1 0 0 empty empty empty 0 -9 0 10 #fcfcfc
#000000 #000000 10961 1;
#X obj 602 170 unpack f f f f;
#X obj 602 170 unpack f f f f;
#X obj 500 240 vsl 30 128 -1 1 0 0 empty empty empty 0 -9 0 10 #fcfcfc
#000000 #000000 6880 1;
#X obj 590 240 vsl 30 128 -1 1 0 0 empty empty empty 0 -9 0 10 #fcfcfc
#000000 #000000 752 1;
#X obj 650 240 vsl 30 128 -1 1 0 0 empty empty empty 0 -9 0 10 #fcfcfc
#000000 #000000 4661 1;
#X obj 700 240 vsl 30 128 -1 1 0 0 empty empty empty 0 -9 0 10 #fcfcfc
#000000 #000000 3930 1;
#X obj 710 450 ctlout 2 2;
#X obj 520 440 ctlout 0 2;
#X obj 617 443 ctlout 1 2;
#X obj 830 430 ctlout 3 2;
#X obj 440 830 ctlout 4 2;
#X obj 530 830 ctlout 5 2;
#X obj 610 830 ctlout 6 2;
#X obj 700 830 ctlout 7 2;
#X obj 444 397 scale 0 1 0 127;
#X obj 550 400 scale 0 1 0 127;
#X obj 670 400 scale 0 1 0 127;
#X obj 320 780 scale 0 1 0 127;
#X obj 430 780 scale 0 1 0 127;
#X obj 540 780 scale 0 1 0 127;
#X obj 660 780 scale 0 1 0 127;
#X obj 890 370 scale 0 1 127 0;
#X obj 370 880 scale -1 1 0 255;
#X obj 500 880 scale -1 1 0 255;
#X obj 630 880 scale -1 1 0 255;
#X floatatom 900 620 5 0 3 0 - - -, f 5;
#X floatatom 950 620 5 0 255 0 - - -, f 5;
#X floatatom 1000 620 5 0 255 0 - - -, f 5;
#X floatatom 1050 620 5 0 255 0 - - -, f 5;
#X obj 910 710 led_ring_osc;
#X obj 950 660 t b f;
#X obj 1000 660 t b f;
#X obj 1050 660 t b f;
#X obj 800 540 scale -1 1 0 255;
#X obj 930 540 scale -1 1 0 255;
#X obj 1060 540 scale -1 1 0 255;
#X floatatom 410 350 5 0 0 0 - - -, f 5;
#X floatatom 940 800 5 0 3 0 - - -, f 5;
#X floatatom 994 801 5 0 255 0 - - -, f 5;
#X floatatom 1044 801 5 0 255 0 - - -, f 5;
#X floatatom 1094 801 5 0 255 0 - - -, f 5;
#X obj 954 891 led_ring_osc;
#X obj 994 841 t b f;
#X obj 1044 841 t b f;
#X obj 1094 841 t b f;
#X connect 0 0 1 0;
#X connect 1 0 2 0;
#X connect 2 0 8 0;
#X connect 2 0 22 0;
#X connect 3 1 32 0;
#X connect 3 4 11 0;
#X connect 4 0 5 0;
#X connect 5 0 52 0;
#X connect 6 4 4 0;
#X connect 7 0 0 0;
#X connect 8 0 3 0;
#X connect 9 0 10 0;
#X connect 10 0 7 0;
#X connect 12 0 6 0;
#X connect 13 0 17 0;
#X connect 14 0 18 0;
#X connect 15 0 19 0;
#X connect 16 0 20 0;
#X connect 18 0 13 0;
#X connect 18 1 17 1;
#X connect 19 0 13 0;
#X connect 19 1 17 2;
#X connect 20 0 13 0;
#X connect 20 1 17 3;
#X connect 21 1 27 0;
#X connect 21 4 23 0;
#X connect 22 0 21 0;
#X connect 24 3 25 0;
#X connect 25 0 51 0;
#X connect 27 0 28 0;
#X connect 27 1 29 0;
#X connect 27 2 30 0;
#X connect 28 0 48 0;
#X connect 28 0 53 0;
#X connect 29 0 49 0;
#X connect 29 0 54 0;
#X connect 30 0 50 0;
#X connect 30 0 55 0;
#X connect 32 0 33 0;
#X connect 32 1 34 0;
#X connect 32 2 35 0;
#X connect 32 3 36 0;
#X connect 33 0 45 0;
#X connect 33 0 67 0;
#X connect 33 0 64 0;
#X connect 34 0 46 0;
#X connect 34 0 65 0;
#X connect 35 0 47 0;
#X connect 35 0 66 0;
#X connect 45 0 38 0;
#X connect 46 0 39 0;
#X connect 47 0 37 0;
#X connect 48 0 41 0;
#X connect 49 0 42 0;
#X connect 50 0 43 0;
#X connect 51 0 44 0;
#X connect 52 0 40 0;
#X connect 53 0 14 0;
#X connect 54 0 15 0;
#X connect 55 0 16 0;
#X connect 56 0 60 0;
#X connect 57 0 61 0;
#X connect 58 0 62 0;
#X connect 59 0 63 0;
#X connect 61 0 56 0;
#X connect 61 1 60 1;
#X connect 62 0 56 0;
#X connect 62 1 60 2;
#X connect 63 0 56 0;
#X connect 63 1 60 3;
#X connect 64 0 57 0;
#X connect 65 0 58 0;
#X connect 66 0 59 0;
#X connect 68 0 72 0;
#X connect 69 0 73 0;
#X connect 70 0 74 0;
#X connect 71 0 75 0;
#X connect 73 0 68 0;
#X connect 73 1 72 1;
#X connect 74 0 68 0;
#X connect 74 1 72 2;
#X connect 75 0 68 0;
#X connect 75 1 72 3;
